# xmcd CD database file
#
# Track frame offsets:
#	150
#	14525
#	27982
#	41536
#	53306
#	65391
#	76209
#	89969
#	101934
#	116150
#	130612
#	143786
#	157936
#	169489
#	182611
#	194795
#	206213
#	219839
#	232945
#	244903
#	256986
#	271957
#	286438
#	297023
#
# Disc length: 4122 seconds
#
# Revision: 0
# Processed by: cddbd v1.5.2PL0 Copyright (c) Steve Scherf et al.
# Submitted via: CDex 1.51
#
DISCID=64101818
DTITLE=James Kok - Die großen Tanzorchester 1930-1950
DYEAR=1940
DGENRE=Jazz
TTITLE0=White Jazz
TTITLE1=So ein Kuss kommt von allein
TTITLE2=Karo Bube
TTITLE3=Orient Express
TTITLE4=Bayrische Madl'n
TTITLE5=Avalon
TTITLE6=Fliegender Hamburger
TTITLE7=So küsst nur die Katja
TTITLE8=Pacific Express
TTITLE9=Der verhexte Speisesaal
TTITLE10=Liebesperlen
TTITLE11=On the Alamo
TTITLE12=Tiger Rag
TTITLE13=Jungle Jazz
TTITLE14=Harlem
TTITLE15=Parade der Xylophonisten
TTITLE16=Das verliebte Tanzorchester
TTITLE17=Wenn die Glocke 12 geschlagen
TTITLE18=Jazznocracy
TTITLE19=Geburtstagsfeier bei der Nachtigall
TTITLE20=Die ersten Küsse, die man gibt
TTITLE21=Komisches Wetter
TTITLE22=Mehlspeis
TTITLE23=Ihnen zuliebe
EXTD=YEAR: 1940
EXTT0=
EXTT1=
EXTT2=
EXTT3=
EXTT4=
EXTT5=
EXTT6=
EXTT7=
EXTT8=
EXTT9=
EXTT10=
EXTT11=
EXTT12=
EXTT13=
EXTT14=
EXTT15=
EXTT16=
EXTT17=
EXTT18=
EXTT19=
EXTT20=
EXTT21=
EXTT22=
EXTT23=
PLAYORDER=
